<?xml version="1.0" encoding="UTF-8" standalone="no"?>
<!DOCTYPE svg PUBLIC "-//W3C//DTD SVG 1.1//EN"
 "http://www.w3.org/Graphics/SVG/1.1/DTD/svg11.dtd">
<!-- Generated by graphviz version 15.0.0 (20260523.1842)
 -->
<!-- Title: OutlierDetection Pages: 1 -->
<svg width="571pt" height="44pt"
 viewBox="0.00 0.00 571.00 44.00" xmlns="http://www.w3.org/2000/svg" xmlns:xlink="http://www.w3.org/1999/xlink">
<g id="graph0" class="graph" transform="scale(1 1) rotate(0) translate(4 40)">
<title>OutlierDetection</title>
<polygon fill="white" stroke="none" points="-4,4 -4,-40 567.25,-40 567.25,4 -4,4"/>
<!-- _d_b_m_down_load_test_8cpp_1a4eafbcdeb31ba1da16d043e22881ec46 -->
<g id="node1" class="node">
<title>_d_b_m_down_load_test_8cpp_1a4eafbcdeb31ba1da16d043e22881ec46</title>
<polygon fill="#ffe08a" stroke="black" stroke-width="2" points="199,-36 0,-36 0,0 199,0 199,-36"/>
<text xml:space="preserve" text-anchor="middle" x="99.5" y="-14.5" font-family="Helvetica,sans-Serif" font-size="10.00">DBMDownLoadTest.cpp::OutlierDetection</text>
</g>
<!-- _d_b_m_down_load_test_8cpp_1ad45b094d532baccee95649c24192f87a -->
<g id="node2" class="node">
<title>_d_b_m_down_load_test_8cpp_1ad45b094d532baccee95649c24192f87a</title>
<polygon fill="none" stroke="black" points="392,-36 235,-36 235,0 392,0 392,-36"/>
<text xml:space="preserve" text-anchor="middle" x="313.5" y="-14.5" font-family="Helvetica,sans-Serif" font-size="10.00">DBMDownLoadTest.cpp::Refine</text>
</g>
<!-- _d_b_m_down_load_test_8cpp_1a4eafbcdeb31ba1da16d043e22881ec46&#45;&gt;_d_b_m_down_load_test_8cpp_1ad45b094d532baccee95649c24192f87a -->
<g id="edge1" class="edge">
<title>_d_b_m_down_load_test_8cpp_1a4eafbcdeb31ba1da16d043e22881ec46&#45;&gt;_d_b_m_down_load_test_8cpp_1ad45b094d532baccee95649c24192f87a</title>
<path fill="none" stroke="black" d="M199.36,-18C207.34,-18 215.37,-18 223.28,-18"/>
<polygon fill="black" stroke="black" points="223.23,-21.5 233.23,-18 223.23,-14.5 223.23,-21.5"/>
</g>
<!-- namespaceadcensus__util_1aaaebd40b291ee87e94d4d9e107d760ee -->
<g id="node3" class="node">
<title>namespaceadcensus__util_1aaaebd40b291ee87e94d4d9e107d760ee</title>
<polygon fill="none" stroke="black" points="563.25,-36 428,-36 428,0 563.25,0 563.25,-36"/>
<text xml:space="preserve" text-anchor="middle" x="495.62" y="-14.5" font-family="Helvetica,sans-Serif" font-size="10.00">adcensus_util::MedianFilter</text>
</g>
<!-- _d_b_m_down_load_test_8cpp_1ad45b094d532baccee95649c24192f87a&#45;&gt;namespaceadcensus__util_1aaaebd40b291ee87e94d4d9e107d760ee -->
<g id="edge2" class="edge">
<title>_d_b_m_down_load_test_8cpp_1ad45b094d532baccee95649c24192f87a&#45;&gt;namespaceadcensus__util_1aaaebd40b291ee87e94d4d9e107d760ee</title>
<path fill="none" stroke="black" d="M392.46,-18C400.32,-18 408.3,-18 416.16,-18"/>
<polygon fill="black" stroke="black" points="416.05,-21.5 426.05,-18 416.05,-14.5 416.05,-21.5"/>
</g>
</g>
</svg>
